<?xml version="1.0" standalone="no"?><!-- Generator: Gravit.io --><svg xmlns="http://www.w3.org/2000/svg" xmlns:xlink="http://www.w3.org/1999/xlink" style="isolation:isolate" viewBox="719.849 288.361 165.152 198.601" width="165.152" height="198.601"><g><path d=" M 878.501 333.924 L 874.897 330.995 C 876.699 330.094 879.064 327.672 879.684 325.645 C 879.459 325.701 878.896 325.814 878.389 325.814 C 875.967 325.814 873.996 323.955 873.996 321.195 C 873.996 318.323 876.361 316.014 879.177 316.014 C 882.218 316.014 884.922 318.379 884.922 322.49 C 884.922 327.109 882.444 331.164 878.501 333.924 Z " fill="rgb(0,0,0)"/><path d=" M 738.266 325.927 L 738.266 310.1 C 738.266 306.778 736.52 305.707 733.76 305.707 C 731.226 305.707 729.536 307.115 728.522 308.355 L 728.522 325.927 L 719.849 325.927 L 719.849 288.361 L 728.522 288.361 L 728.522 302.047 C 730.156 300.132 733.366 298.048 737.928 298.048 C 744.123 298.048 746.939 301.54 746.939 306.552 L 746.939 325.927 L 738.266 325.927 Z " fill="rgb(0,0,0)"/><path d=" M 762.765 305.031 C 758.992 305.031 757.527 307.284 757.189 309.255 L 768.397 309.255 C 768.172 307.34 766.764 305.031 762.765 305.031 Z  M 748.347 312.297 C 748.347 304.411 754.261 298.047 762.765 298.047 C 770.819 298.047 776.677 303.961 776.677 313.198 L 776.677 315.169 L 757.302 315.169 C 757.922 317.591 760.175 319.618 764.117 319.618 C 766.032 319.618 769.186 318.774 770.763 317.309 L 774.536 322.998 C 771.833 325.419 767.327 326.602 763.16 326.602 C 754.767 326.602 748.347 321.139 748.347 312.297 Z " fill="rgb(0,0,0)"/><path d=" M 778.478 328.799 C 779.098 329.137 779.942 329.306 780.618 329.306 C 782.589 329.306 783.829 328.912 784.334 327.785 L 784.954 326.321 L 774.084 298.723 L 783.209 298.723 L 789.404 315.958 L 795.543 298.723 L 804.724 298.723 L 792.445 329.813 C 790.248 335.558 786.194 336.853 780.955 336.966 C 780.166 336.966 778.14 336.797 777.238 336.515 L 778.478 328.799 Z " fill="rgb(0,0,0)"/><path d=" M 833.896 325.927 L 833.896 310.1 C 833.896 306.778 832.15 305.707 829.391 305.707 C 826.856 305.707 825.167 307.115 824.153 308.355 L 824.153 325.927 L 815.479 325.927 L 815.479 288.361 L 824.153 288.361 L 824.153 302.047 C 825.786 300.132 828.996 298.048 833.558 298.048 C 839.753 298.048 842.57 301.54 842.57 306.552 L 842.57 325.927 L 833.896 325.927 Z " fill="rgb(0,0,0)"/><path d=" M 864.703 312.297 C 864.703 308.693 862.563 305.707 858.733 305.707 C 855.015 305.707 852.875 308.693 852.875 312.297 C 852.875 315.958 855.015 318.943 858.733 318.943 C 862.563 318.943 864.703 315.958 864.703 312.297 Z  M 843.976 312.297 C 843.976 304.637 849.496 298.047 858.733 298.047 C 868.082 298.047 873.601 304.637 873.601 312.297 C 873.601 319.957 868.082 326.603 858.733 326.603 C 849.496 326.603 843.976 319.957 843.976 312.297 Z " fill="rgb(0,0,0)"/><path d=" M 720.058 338.337 L 735.766 338.337 L 735.766 406.375 L 720.058 406.375 L 720.058 338.337 Z " fill="rgb(0,0,0)"/><path d=" M 765.042 368.531 C 758.208 368.531 755.556 372.611 754.943 376.181 L 775.243 376.181 C 774.835 372.713 772.285 368.531 765.042 368.531 Z  M 738.929 381.69 C 738.929 367.409 749.639 355.883 765.042 355.883 C 779.628 355.883 790.237 366.593 790.237 383.322 L 790.237 386.892 L 755.147 386.892 C 756.27 391.278 760.35 394.95 767.49 394.95 C 770.959 394.95 776.671 393.421 779.527 390.768 L 786.361 401.071 C 781.465 405.457 773.305 407.599 765.756 407.599 C 750.558 407.599 738.929 397.704 738.929 381.69 Z " fill="rgb(0,0,0)"/><path d=" M 796.154 393.115 L 796.154 370.674 L 787.993 370.674 L 787.993 357.107 L 796.154 357.107 L 796.154 343.642 L 811.862 343.642 L 811.862 357.107 L 821.859 357.107 L 821.859 370.674 L 811.862 370.674 L 811.862 388.729 C 811.862 391.585 813.494 393.727 816.147 393.727 C 817.881 393.727 819.615 393.115 820.125 392.503 L 823.185 404.336 C 821.247 406.172 817.371 407.599 811.557 407.599 C 801.56 407.599 796.154 402.601 796.154 393.115 Z " fill="rgb(0,0,0)"/><path d=" M 831.04 369.755 L 824.511 364.552 C 827.776 362.921 832.06 358.534 833.182 354.76 C 832.774 354.964 831.754 355.168 830.836 355.168 C 826.45 355.168 822.879 351.802 822.879 346.702 C 822.879 341.5 827.164 337.317 832.264 337.317 C 837.772 337.317 842.668 341.601 842.668 349.15 C 842.668 357.412 838.18 364.756 831.04 369.755 Z " fill="rgb(0,0,0)"/><path d=" M 839.505 399.949 L 846.033 388.728 C 849.706 391.992 857.56 395.358 863.375 395.358 C 868.067 395.358 870.005 394.032 870.005 391.89 C 870.005 385.77 841.341 392.095 841.341 372.101 C 841.341 363.431 848.89 355.883 862.456 355.883 C 870.821 355.883 877.757 358.534 883.061 362.411 L 877.043 373.53 C 874.085 370.673 868.475 368.123 862.559 368.123 C 858.886 368.123 856.438 369.551 856.438 371.489 C 856.438 376.895 885 371.285 885 391.482 C 885 400.866 876.737 407.599 862.66 407.599 C 853.786 407.599 844.707 404.641 839.505 399.949 Z " fill="rgb(0,0,0)"/><path d=" M 720.11 451.877 C 720.11 430.115 736.889 416.794 757.431 416.794 C 773.6 416.794 782.956 425.742 787.227 434.488 L 769.94 443.335 C 768.007 439.166 763.533 434.895 757.431 434.895 C 747.567 434.895 740.957 442.42 740.957 451.877 C 740.957 461.335 747.567 468.86 757.431 468.86 C 761.296 468.86 765.872 467.436 768.007 465.809 L 768.007 463.368 L 755.398 463.368 L 755.398 445.471 L 788.447 445.471 L 788.447 473.232 C 780.923 481.571 770.753 486.961 757.431 486.961 C 736.889 486.961 720.11 473.538 720.11 451.877 Z " fill="rgb(0,0,0)"/><path d=" M 842.24 451.877 C 842.24 442.42 835.833 434.895 825.969 434.895 C 816.105 434.895 809.698 442.42 809.698 451.877 C 809.698 461.335 816.105 468.86 825.969 468.86 C 835.833 468.86 842.24 461.335 842.24 451.877 Z  M 788.851 451.877 C 788.851 431.03 805.02 416.794 825.969 416.794 C 846.918 416.794 863.087 431.03 863.087 451.877 C 863.087 472.724 846.918 486.961 825.969 486.961 C 805.02 486.961 788.851 472.724 788.851 451.877 Z " fill="rgb(0,0,0)"/><path d=" M 863.389 476.081 C 863.389 470.183 868.27 465.2 874.168 465.2 C 880.066 465.2 884.948 470.183 884.948 476.081 C 884.948 481.877 880.066 486.86 874.168 486.86 C 868.27 486.86 863.389 481.877 863.389 476.081 Z  M 865.931 460.522 L 863.185 417.913 L 884.948 417.913 L 882.406 460.522 L 865.931 460.522 Z " fill="rgb(0,0,0)"/></g></svg>