<?xml version="1.0" standalone="no"?><!-- Generator: Gravit.io --><svg xmlns="http://www.w3.org/2000/svg" xmlns:xlink="http://www.w3.org/1999/xlink" style="isolation:isolate" viewBox="441.553 593.365 53.447 45.895" width="53.447" height="45.895"><g><path d=" M 483.811 634.264 L 452.741 634.264 C 450.576 634.264 449.227 631.888 450.344 630.031 L 465.872 604.145 C 466.966 602.332 469.586 602.332 470.681 604.145 L 486.21 630.031 C 487.327 631.888 485.988 634.264 483.811 634.264 Z  M 494.411 633.081 L 471.775 595.347 C 470.194 592.705 466.358 592.705 464.779 595.347 L 442.142 633.081 C 440.505 635.801 442.474 639.26 445.646 639.26 L 490.908 639.26 C 494.079 639.26 496.047 635.801 494.411 633.081 Z " fill="rgb(0,0,0)"/><path d=" M 470.391 623.704 L 466.162 623.704 L 465.421 610.307 L 471.101 610.307 L 470.391 623.704 Z  M 470.298 630.387 C 469.722 630.952 469.043 631.235 468.261 631.235 C 467.478 631.235 466.805 630.952 466.238 630.387 C 465.673 629.821 465.391 629.147 465.391 628.364 C 465.391 627.583 465.673 626.904 466.238 626.327 C 466.805 625.751 467.478 625.463 468.261 625.463 C 469.043 625.463 469.722 625.751 470.298 626.327 C 470.875 626.904 471.162 627.583 471.162 628.364 C 471.162 629.147 470.875 629.821 470.298 630.387 Z " fill="rgb(0,0,0)"/></g></svg>