<?xml version="1.0" standalone="no"?><!-- Generator: Gravit.io --><svg xmlns="http://www.w3.org/2000/svg" xmlns:xlink="http://www.w3.org/1999/xlink" style="isolation:isolate" viewBox="381.503 369 27.994 54" width="27.994" height="54"><g><path d=" M 391 373.5 L 391 418.5 C 391 420.975 393.025 423 395.5 423 C 397.975 423 400 420.975 400 418.5 L 400 373.5 C 400 371.025 397.975 369 395.5 369 C 393.025 369 391 371.025 391 373.5 Z " fill="rgb(0,0,0)"/><path d=" M 401.103 400.456 L 392.103 416.045 C 390.865 418.188 391.606 420.954 393.75 422.192 C 395.894 423.429 398.66 422.688 399.897 420.545 L 408.897 404.956 C 410.135 402.813 409.394 400.047 407.25 398.809 C 405.106 397.572 402.34 398.313 401.103 400.456 Z " fill="rgb(0,0,0)"/><path d=" M 389.897 400.456 L 398.897 416.045 C 400.135 418.188 399.394 420.954 397.25 422.192 C 395.106 423.429 392.34 422.688 391.103 420.545 L 382.103 404.956 C 380.865 402.813 381.606 400.047 383.75 398.809 C 385.894 397.572 388.66 398.313 389.897 400.456 Z " fill="rgb(0,0,0)"/></g></svg>