<?xml version="1.0" standalone="no"?><!-- Generator: Gravit.io --><svg xmlns="http://www.w3.org/2000/svg" xmlns:xlink="http://www.w3.org/1999/xlink" style="isolation:isolate" viewBox="297 310.503 54 27.994" width="54" height="27.994"><g><path d=" M 346.5 329 L 301.5 329 C 299.025 329 297 326.975 297 324.5 C 297 322.025 299.025 320 301.5 320 L 346.5 320 C 348.975 320 351 322.025 351 324.5 C 351 326.975 348.975 329 346.5 329 Z " fill="rgb(0,0,0)"/><path d=" M 319.544 318.897 L 303.955 327.897 C 301.812 329.135 299.046 328.394 297.808 326.25 C 296.571 324.106 297.312 321.34 299.455 320.103 L 315.044 311.103 C 317.187 309.865 319.953 310.606 321.191 312.75 C 322.428 314.894 321.687 317.66 319.544 318.897 Z " fill="rgb(0,0,0)"/><path d=" M 319.544 330.103 L 303.955 321.103 C 301.812 319.865 299.046 320.606 297.808 322.75 C 296.571 324.894 297.312 327.66 299.455 328.897 L 315.044 337.897 C 317.187 339.135 319.953 338.394 321.191 336.25 C 322.428 334.106 321.687 331.34 319.544 330.103 Z " fill="rgb(0,0,0)"/></g></svg>