<?xml version="1.0" standalone="no"?><!-- Generator: Gravit.io --><svg xmlns="http://www.w3.org/2000/svg" xmlns:xlink="http://www.w3.org/1999/xlink" style="isolation:isolate" viewBox="720.11 416.794 164.838 70.167" width="164.838" height="70.167"><g><path d=" M 720.11 451.877 C 720.11 430.115 736.889 416.794 757.431 416.794 C 773.6 416.794 782.956 425.742 787.227 434.488 L 769.94 443.335 C 768.007 439.166 763.533 434.895 757.431 434.895 C 747.567 434.895 740.957 442.42 740.957 451.877 C 740.957 461.335 747.567 468.86 757.431 468.86 C 761.296 468.86 765.872 467.436 768.007 465.809 L 768.007 463.368 L 755.398 463.368 L 755.398 445.471 L 788.447 445.471 L 788.447 473.232 C 780.923 481.571 770.753 486.961 757.431 486.961 C 736.889 486.961 720.11 473.538 720.11 451.877 Z " fill="rgb(0,0,0)"/><path d=" M 842.24 451.877 C 842.24 442.42 835.833 434.895 825.969 434.895 C 816.105 434.895 809.698 442.42 809.698 451.877 C 809.698 461.335 816.105 468.86 825.969 468.86 C 835.833 468.86 842.24 461.335 842.24 451.877 Z  M 788.851 451.877 C 788.851 431.03 805.02 416.794 825.969 416.794 C 846.918 416.794 863.087 431.03 863.087 451.877 C 863.087 472.724 846.918 486.961 825.969 486.961 C 805.02 486.961 788.851 472.724 788.851 451.877 Z " fill="rgb(0,0,0)"/><path d=" M 863.389 476.081 C 863.389 470.183 868.27 465.2 874.168 465.2 C 880.066 465.2 884.948 470.183 884.948 476.081 C 884.948 481.877 880.066 486.86 874.168 486.86 C 868.27 486.86 863.389 481.877 863.389 476.081 Z  M 865.931 460.522 L 863.185 417.913 L 884.948 417.913 L 882.406 460.522 L 865.931 460.522 Z " fill="rgb(0,0,0)"/></g></svg>