<?xml version="1.0" standalone="no"?><!-- Generator: Gravit.io --><svg xmlns="http://www.w3.org/2000/svg" xmlns:xlink="http://www.w3.org/1999/xlink" style="isolation:isolate" viewBox="719.849 288.361 84.875 48.605" width="84.875" height="48.605"><g><path d=" M 738.266 325.927 L 738.266 310.1 C 738.266 306.778 736.52 305.707 733.76 305.707 C 731.226 305.707 729.536 307.115 728.522 308.355 L 728.522 325.927 L 719.849 325.927 L 719.849 288.361 L 728.522 288.361 L 728.522 302.047 C 730.156 300.132 733.366 298.048 737.928 298.048 C 744.123 298.048 746.939 301.54 746.939 306.552 L 746.939 325.927 L 738.266 325.927 Z " fill="rgb(0,0,0)"/><path d=" M 762.765 305.031 C 758.992 305.031 757.527 307.284 757.189 309.255 L 768.397 309.255 C 768.172 307.34 766.764 305.031 762.765 305.031 Z  M 748.347 312.297 C 748.347 304.411 754.261 298.047 762.765 298.047 C 770.819 298.047 776.677 303.961 776.677 313.198 L 776.677 315.169 L 757.302 315.169 C 757.922 317.591 760.175 319.618 764.117 319.618 C 766.032 319.618 769.186 318.774 770.763 317.309 L 774.536 322.998 C 771.833 325.419 767.327 326.602 763.16 326.602 C 754.767 326.602 748.347 321.139 748.347 312.297 Z " fill="rgb(0,0,0)"/><path d=" M 778.477 328.799 C 779.097 329.137 779.942 329.306 780.617 329.306 C 782.589 329.306 783.828 328.912 784.334 327.785 L 784.955 326.321 L 774.084 298.723 L 783.208 298.723 L 789.404 315.958 L 795.542 298.723 L 804.724 298.723 L 792.445 329.813 C 790.248 335.558 786.193 336.853 780.956 336.966 C 780.167 336.966 778.14 336.797 777.239 336.515 L 778.477 328.799 Z " fill="rgb(0,0,0)"/></g></svg>