<?xml version="1.0" standalone="no"?><!-- Generator: Gravit.io --><svg xmlns="http://www.w3.org/2000/svg" xmlns:xlink="http://www.w3.org/1999/xlink" style="isolation:isolate" viewBox="815.479 288.361 69.443 45.563" width="69.443" height="45.563"><g><path d=" M 878.5 333.924 L 874.896 330.995 C 876.698 330.094 879.063 327.672 879.683 325.645 C 879.458 325.701 878.896 325.814 878.388 325.814 C 875.966 325.814 873.995 323.955 873.995 321.195 C 873.995 318.323 876.36 316.014 879.177 316.014 C 882.218 316.014 884.922 318.379 884.922 322.49 C 884.922 327.109 882.443 331.164 878.5 333.924 Z " fill="rgb(0,0,0)"/><path d=" M 833.896 325.927 L 833.896 310.1 C 833.896 306.778 832.15 305.707 829.391 305.707 C 826.856 305.707 825.167 307.115 824.153 308.355 L 824.153 325.927 L 815.479 325.927 L 815.479 288.361 L 824.153 288.361 L 824.153 302.047 C 825.786 300.132 828.996 298.048 833.558 298.048 C 839.753 298.048 842.57 301.54 842.57 306.552 L 842.57 325.927 L 833.896 325.927 Z " fill="rgb(0,0,0)"/><path d=" M 864.703 312.297 C 864.703 308.693 862.563 305.707 858.733 305.707 C 855.015 305.707 852.875 308.693 852.875 312.297 C 852.875 315.958 855.015 318.943 858.733 318.943 C 862.563 318.943 864.703 315.958 864.703 312.297 Z  M 843.976 312.297 C 843.976 304.637 849.496 298.047 858.733 298.047 C 868.082 298.047 873.601 304.637 873.601 312.297 C 873.601 319.957 868.082 326.603 858.733 326.603 C 849.496 326.603 843.976 319.957 843.976 312.297 Z " fill="rgb(0,0,0)"/></g></svg>