<?xml version="1.0" standalone="no"?><!-- Generator: Gravit.io --><svg xmlns="http://www.w3.org/2000/svg" xmlns:xlink="http://www.w3.org/1999/xlink" style="isolation:isolate" viewBox="509 511.93 58 50.66" width="58" height="50.66"><g><path d=" M 560.42 516.59 L 544.66 516.59 L 544.66 519.12 C 544.66 519.34 544.62 519.56 544.55 519.76 L 556.42 519.76 C 560.04 519.76 563 522.72 563 526.34 L 563 552.83 C 563 556.45 560.04 559.41 556.42 559.41 L 519.58 559.41 C 515.96 559.41 513 556.45 513 552.83 L 513 526.34 C 513 522.72 515.96 519.76 519.58 519.76 L 532.22 519.76 C 532.15 519.56 532.11 519.34 532.11 519.12 L 532.11 516.59 L 515.58 516.59 C 511.96 516.59 509 519.55 509 523.17 L 509 556 C 509 559.62 511.96 562.59 515.58 562.59 L 560.42 562.59 C 564.04 562.59 567 559.62 567 556 L 567 523.17 C 567 519.55 564.04 516.59 560.42 516.59 Z " fill="rgb(0,0,0)"/><path d=" M 533.4 536.4 C 533.4 539.382 530.983 541.8 528 541.8 C 525.018 541.8 522.6 539.382 522.6 536.4 C 522.6 533.418 525.018 531 528 531 C 530.983 531 533.4 533.418 533.4 536.4 Z " fill="rgb(0,0,0)"/><path d=" M 537 547.2 L 537 549 L 519 549 L 519 547.2 C 519 544.216 521.416 541.8 524.4 541.8 L 531.6 541.8 C 534.584 541.8 537 544.216 537 547.2 Z " fill="rgb(0,0,0)"/><path d=" M 558 535 L 540 535 L 540 533 L 558 533 L 558 535 Z " fill="rgb(0,0,0)"/><path d=" M 558 539 L 540 539 L 540 537 L 558 537 L 558 539 Z " fill="rgb(0,0,0)"/><path d=" M 558 543 L 540 543 L 540 541 L 558 541 L 558 543 Z " fill="rgb(0,0,0)"/><path d=" M 558 547 L 540 547 L 540 545 L 558 545 L 558 547 Z " fill="rgb(0,0,0)"/><path d=" M 544.66 519.12 C 544.66 519.34 544.62 519.56 544.55 519.76 C 544.29 520.52 543.57 521.07 542.72 521.07 L 534.06 521.07 C 533.2 521.07 532.48 520.52 532.22 519.76 C 532.15 519.56 532.11 519.34 532.11 519.12 L 532.11 515.75 C 532.11 514.67 532.98 513.8 534.06 513.8 L 542.72 513.8 C 543.79 513.8 544.66 514.67 544.66 515.75 L 544.66 519.12 Z  M 545.94 511.93 L 530.83 511.93 C 529.76 511.93 528.89 512.8 528.89 513.88 L 528.89 520.99 C 528.89 522.06 529.76 522.93 530.83 522.93 L 545.94 522.93 C 547.02 522.93 547.89 522.06 547.89 520.99 L 547.89 513.88 C 547.89 512.8 547.02 511.93 545.94 511.93 Z " fill="rgb(0,0,0)"/></g></svg>