<?xml version="1.0" standalone="no"?><!-- Generator: Gravit.io --><svg xmlns="http://www.w3.org/2000/svg" xmlns:xlink="http://www.w3.org/1999/xlink" style="isolation:isolate" viewBox="720.058 337.317 164.942 70.282" width="164.942" height="70.282"><g><path d=" M 720.058 338.337 L 735.766 338.337 L 735.766 406.375 L 720.058 406.375 L 720.058 338.337 Z " fill="rgb(0,0,0)"/><path d=" M 765.042 368.531 C 758.208 368.531 755.556 372.611 754.943 376.181 L 775.243 376.181 C 774.835 372.713 772.285 368.531 765.042 368.531 Z  M 738.929 381.69 C 738.929 367.409 749.639 355.883 765.042 355.883 C 779.628 355.883 790.237 366.593 790.237 383.322 L 790.237 386.892 L 755.147 386.892 C 756.27 391.278 760.35 394.95 767.49 394.95 C 770.959 394.95 776.671 393.421 779.527 390.768 L 786.361 401.071 C 781.465 405.457 773.305 407.599 765.756 407.599 C 750.558 407.599 738.929 397.704 738.929 381.69 Z " fill="rgb(0,0,0)"/><path d=" M 796.154 393.115 L 796.154 370.674 L 787.993 370.674 L 787.993 357.107 L 796.154 357.107 L 796.154 343.642 L 811.862 343.642 L 811.862 357.107 L 821.859 357.107 L 821.859 370.674 L 811.862 370.674 L 811.862 388.729 C 811.862 391.585 813.494 393.727 816.147 393.727 C 817.881 393.727 819.615 393.115 820.125 392.503 L 823.185 404.336 C 821.247 406.172 817.371 407.599 811.557 407.599 C 801.56 407.599 796.154 402.601 796.154 393.115 Z " fill="rgb(0,0,0)"/><path d=" M 831.04 369.755 L 824.511 364.552 C 827.776 362.921 832.06 358.534 833.182 354.76 C 832.774 354.964 831.754 355.168 830.836 355.168 C 826.45 355.168 822.879 351.802 822.879 346.702 C 822.879 341.5 827.164 337.317 832.264 337.317 C 837.772 337.317 842.668 341.601 842.668 349.15 C 842.668 357.412 838.18 364.756 831.04 369.755 Z " fill="rgb(0,0,0)"/><path d=" M 839.505 399.949 L 846.033 388.728 C 849.706 391.992 857.56 395.358 863.375 395.358 C 868.067 395.358 870.005 394.032 870.005 391.89 C 870.005 385.77 841.341 392.095 841.341 372.101 C 841.341 363.431 848.89 355.883 862.456 355.883 C 870.821 355.883 877.757 358.534 883.061 362.411 L 877.043 373.53 C 874.085 370.673 868.475 368.123 862.559 368.123 C 858.886 368.123 856.438 369.551 856.438 371.489 C 856.438 376.895 885 371.285 885 391.482 C 885 400.866 876.737 407.599 862.66 407.599 C 853.786 407.599 844.707 404.641 839.505 399.949 Z " fill="rgb(0,0,0)"/></g></svg>