<?xml version="1.0" standalone="no"?><!-- Generator: Gravit.io --><svg xmlns="http://www.w3.org/2000/svg" xmlns:xlink="http://www.w3.org/1999/xlink" style="isolation:isolate" viewBox="519 590.706 41.395 43.294" width="41.395" height="43.294"><g><path d=" M 552.944 596.745 C 544.226 603.244 534.862 604.097 530.59 604.195 C 527.975 604.195 525.673 605.545 524.348 607.59 C 523.578 608.758 523.14 610.156 523.14 611.646 C 523.14 612.831 523.413 613.948 523.909 614.941 C 525.127 617.409 527.66 619.098 530.59 619.098 C 534.862 619.197 544.226 620.05 552.944 626.549 C 555.47 628.43 557.479 630.441 559.058 632.316 C 559.514 632.859 560.395 632.531 560.395 631.822 L 560.395 591.472 C 560.395 590.763 559.514 590.434 559.058 590.976 C 557.479 592.852 555.47 594.864 552.944 596.745 Z " fill="rgb(0,0,0)"/><path d=" M 522.312 611.646 C 522.312 612.831 522.584 613.948 523.081 614.942 C 522.966 614.951 522.841 614.958 522.726 614.958 C 520.664 614.958 519 613.294 519 611.232 C 519 609.172 520.664 607.508 522.726 607.508 C 522.998 607.508 523.263 607.532 523.521 607.589 C 522.75 608.758 522.312 610.156 522.312 611.646 Z " fill="rgb(0,0,0)"/><path d=" M 537.666 634 L 536.926 634 C 535.971 634 535.139 633.351 534.907 632.424 L 534.426 630.501 C 533.817 628.067 533.208 625.633 532.6 623.199 C 532.027 620.911 531.476 618.616 530.878 616.335 C 530.708 615.685 530.539 615.032 530.401 614.373 C 530.31 613.934 530.289 613.569 530.507 613.101 C 530.916 612.222 531.818 611.646 532.787 611.646 C 533.782 611.646 534.725 612.261 535.103 613.186 C 535.344 613.772 535.442 614.448 535.596 615.063 C 536.316 617.936 537.033 620.81 537.751 623.683 C 538.396 626.26 539.04 628.837 539.685 631.415 C 540.013 632.728 539.02 634 537.666 634 Z " fill="rgb(0,0,0)"/></g></svg>