<?xml version="1.0" standalone="no"?><!-- Generator: Gravit.io --><svg xmlns="http://www.w3.org/2000/svg" xmlns:xlink="http://www.w3.org/1999/xlink" style="isolation:isolate" viewBox="461 248 14 14" width="14" height="14"><g><path d=" M 468.357 262 L 467.643 262 C 467.289 262 467 261.711 467 261.357 L 467 248.643 C 467 248.289 467.289 248 467.643 248 L 468.357 248 C 468.711 248 469 248.289 469 248.643 L 469 261.357 C 469 261.711 468.711 262 468.357 262 Z " fill="rgb(0,0,0)"/><path d=" M 474.357 256 L 461.643 256 C 461.289 256 461 255.711 461 255.357 L 461 254.643 C 461 254.289 461.289 254 461.643 254 L 474.357 254 C 474.711 254 475 254.289 475 254.643 L 475 255.357 C 475 255.711 474.711 256 474.357 256 Z " fill="rgb(0,0,0)"/></g></svg>