<?xml version="1.0" standalone="no"?><!-- Generator: Gravit.io --><svg xmlns="http://www.w3.org/2000/svg" xmlns:xlink="http://www.w3.org/1999/xlink" style="isolation:isolate" viewBox="583.28 510.141 57.72 59.661" width="57.72" height="59.661"><g><path d=" M 617.151 542.555 C 615.039 542.555 613.675 544.169 613.675 546.189 C 613.675 548.209 615.039 549.823 617.151 549.823 C 619.263 549.823 620.641 548.209 620.641 546.189 C 620.641 544.169 619.263 542.555 617.151 542.555 Z  M 617.151 542.555 C 615.039 542.555 613.675 544.169 613.675 546.189 C 613.675 548.209 615.039 549.823 617.151 549.823 C 619.263 549.823 620.641 548.209 620.641 546.189 C 620.641 544.169 619.263 542.555 617.151 542.555 Z  M 617.151 542.555 C 615.039 542.555 613.675 544.169 613.675 546.189 C 613.675 548.209 615.039 549.823 617.151 549.823 C 619.263 549.823 620.641 548.209 620.641 546.189 C 620.641 544.169 619.263 542.555 617.151 542.555 Z  M 629.233 548.038 L 625.704 548.038 L 625.114 538.922 L 629.771 538.922 L 629.233 548.038 Z  M 627.462 553.679 C 626.203 553.679 625.167 552.604 625.167 551.37 C 625.167 550.112 626.203 549.035 627.462 549.035 C 628.734 549.035 629.771 550.112 629.771 551.37 C 629.771 552.604 628.734 553.679 627.462 553.679 Z  M 617.151 553.693 C 612.665 553.693 609.215 550.649 609.215 546.189 C 609.215 541.729 612.665 538.685 617.151 538.685 C 621.638 538.685 625.101 541.729 625.101 546.189 C 625.101 550.649 621.638 553.693 617.151 553.693 Z  M 609.123 550.754 C 607.509 552.538 605.332 553.693 602.485 553.693 C 598.09 553.693 594.496 550.82 594.496 546.189 C 594.496 541.533 598.09 538.685 602.485 538.685 C 605.948 538.685 607.943 540.601 608.86 542.463 L 605.161 544.366 C 604.755 543.474 603.797 542.555 602.485 542.555 C 600.373 542.555 598.956 544.169 598.956 546.189 C 598.956 548.209 600.373 549.823 602.485 549.823 C 603.312 549.823 604.296 549.521 604.755 549.167 L 604.755 548.642 L 602.052 548.642 L 602.052 544.812 L 609.123 544.812 L 609.123 550.754 Z  M 635.753 522.576 L 633.129 525.2 L 630.505 522.576 L 627.882 525.2 L 625.258 522.576 L 622.635 525.2 L 620.011 522.576 L 617.387 525.2 L 614.764 522.576 L 612.14 525.2 L 609.517 522.576 L 606.893 525.2 L 604.269 522.576 L 601.646 525.2 L 599.022 522.576 L 596.399 525.2 L 593.775 522.576 L 591.151 525.2 L 588.527 522.576 L 583.28 569.802 L 641 569.802 L 635.753 522.576 Z  M 617.151 542.555 C 615.039 542.555 613.675 544.169 613.675 546.189 C 613.675 548.209 615.039 549.823 617.151 549.823 C 619.263 549.823 620.641 548.209 620.641 546.189 C 620.641 544.169 619.263 542.555 617.151 542.555 Z  M 617.151 542.555 C 615.039 542.555 613.675 544.169 613.675 546.189 C 613.675 548.209 615.039 549.823 617.151 549.823 C 619.263 549.823 620.641 548.209 620.641 546.189 C 620.641 544.169 619.263 542.555 617.151 542.555 Z " fill="rgb(0,0,0)"/><path d=" M 612.245 531.497 C 606.972 531.497 602.695 527.22 602.695 521.947 C 602.695 516.673 606.972 512.397 612.245 512.397 C 617.518 512.397 621.795 516.673 621.795 521.947 C 621.795 527.22 617.518 531.497 612.245 531.497 Z  M 612.245 510.141 C 605.725 510.141 600.438 515.427 600.438 521.947 C 600.438 528.467 605.725 533.753 612.245 533.753 C 618.765 533.753 624.051 528.467 624.051 521.947 C 624.051 515.427 618.765 510.141 612.245 510.141 Z " fill="rgb(0,0,0)"/></g></svg>