<?xml version="1.0" standalone="no"?><!-- Generator: Gravit.io --><svg xmlns="http://www.w3.org/2000/svg" xmlns:xlink="http://www.w3.org/1999/xlink" style="isolation:isolate" viewBox="738 522 39 36" width="39" height="36"><g><path d=" M 749.84 540.47 L 756 522 L 747 522 L 739.8 543.61 C 739.8 543.61 739.79 543.61 739.79 543.62 L 738 549 C 738 553.97 742.03 558 747 558 C 751.97 558 756 553.97 756 549 C 756 545.019 753.42 541.65 749.84 540.47 Z " fill="rgb(0,0,0)"/><path d=" M 770.84 540.47 L 777 522 L 768 522 L 760.8 543.61 C 760.8 543.61 760.79 543.61 760.79 543.62 L 759 549 C 759 553.97 763.03 558 768 558 C 772.97 558 777 553.97 777 549 C 777 545.019 774.42 541.65 770.84 540.47 Z " fill="rgb(0,0,0)"/></g></svg>