<?xml version="1.0" standalone="no"?><!-- Generator: Gravit.io --><svg xmlns="http://www.w3.org/2000/svg" xmlns:xlink="http://www.w3.org/1999/xlink" style="isolation:isolate" viewBox="653 293 62 62" width="62" height="62"><g><path d=" M 680.88 327.24 C 679.17 328.05 677.27 328.5 675.25 328.5 C 667.93 328.5 662 322.57 662 315.25 C 662 307.93 667.93 302 675.25 302 C 682.57 302 688.5 307.93 688.5 315.25 C 688.5 317.27 688.05 319.17 687.24 320.88 C 685.93 323.68 683.68 325.93 680.88 327.24 Z  M 675.5 293 C 663.07 293 653 303.07 653 315.5 C 653 327.93 663.07 338 675.5 338 C 680.09 338 684.36 336.63 687.91 334.27 C 690.44 332.6 692.6 330.44 694.27 327.91 C 696.63 324.36 698 320.09 698 315.5 C 698 303.07 687.93 293 675.5 293 Z " fill="rgb(184,0,0)"/><path d=" M 715 350.5 C 715 352.99 712.99 355 710.5 355 C 709.26 355 708.13 354.5 707.32 353.68 L 680.88 327.24 C 683.68 325.93 685.93 323.68 687.24 320.88 L 694.27 327.91 L 713.68 347.32 C 714.5 348.13 715 349.26 715 350.5 Z " fill="rgb(184,0,0)"/></g></svg>