<?xml version="1.0" standalone="no"?><!-- Generator: Gravit.io --><svg xmlns="http://www.w3.org/2000/svg" xmlns:xlink="http://www.w3.org/1999/xlink" style="isolation:isolate" viewBox="535.611 250.61 10.779 10.779" width="10.779" height="10.779"><g><path d=" M 546.202 260.697 L 545.697 261.202 C 545.447 261.452 545.038 261.452 544.788 261.202 L 535.798 252.212 C 535.548 251.962 535.548 251.552 535.798 251.302 L 536.303 250.798 C 536.553 250.548 536.962 250.548 537.212 250.798 L 546.202 259.788 C 546.452 260.038 546.452 260.447 546.202 260.697 Z " fill="rgb(0,0,0)"/><path d=" M 546.202 252.212 L 537.212 261.202 C 536.962 261.452 536.553 261.452 536.303 261.202 L 535.798 260.697 C 535.548 260.447 535.548 260.038 535.798 259.788 L 544.788 250.798 C 545.038 250.548 545.447 250.548 545.697 250.798 L 546.202 251.303 C 546.452 251.553 546.452 251.962 546.202 252.212 Z " fill="rgb(0,0,0)"/></g></svg>