<?xml version="1.0" standalone="no"?><!-- Generator: Gravit.io --><svg xmlns="http://www.w3.org/2000/svg" xmlns:xlink="http://www.w3.org/1999/xlink" style="isolation:isolate" viewBox="656.783 585 54 45" width="54" height="45"><g><path d=" M 706.283 612.019 C 706.283 614.481 704.263 616.5 701.803 616.5 L 665.763 616.5 C 663.303 616.5 661.283 614.481 661.283 612.019 L 661.283 593.981 C 661.283 591.519 663.303 589.5 665.763 589.5 L 701.803 589.5 C 704.263 589.5 706.283 591.519 706.283 593.981 L 706.283 612.019 Z  M 700.783 620 C 700.233 620 699.783 619.549 699.783 619 C 699.783 618.451 700.233 618 700.783 618 C 701.333 618 701.783 618.451 701.783 619 C 701.783 619.549 701.333 620 700.783 620 Z  M 698.283 620 C 698.013 620 697.783 619.769 697.783 619.5 C 697.783 619.231 698.013 619 698.283 619 C 698.553 619 698.783 619.231 698.783 619.5 C 698.783 619.769 698.553 620 698.283 620 Z  M 696.283 620 C 696.013 620 695.783 619.769 695.783 619.5 C 695.783 619.231 696.013 619 696.283 619 C 696.553 619 696.783 619.231 696.783 619.5 C 696.783 619.769 696.553 620 696.283 620 Z  M 706.303 585 L 661.263 585 C 658.803 585 656.783 587.019 656.783 589.481 L 656.783 616.519 C 656.783 618.981 658.803 621 661.263 621 L 706.303 621 C 708.763 621 710.783 618.981 710.783 616.519 L 710.783 589.481 C 710.783 587.019 708.763 585 706.303 585 Z " fill="rgb(0,0,0)"/><path d=" M 688.283 629 L 679.283 629 L 679.283 620 L 688.283 620 L 688.283 629 Z " fill="rgb(0,0,0)"/><path d=" M 701.533 630 L 665.533 630 L 665.533 629 L 701.533 629 L 701.533 630 Z " fill="rgb(0,0,0)"/><path d=" M 690.664 598.121 L 690.338 597.855 C 690.501 597.774 690.715 597.556 690.771 597.372 C 690.751 597.377 690.7 597.388 690.654 597.388 C 690.435 597.388 690.257 597.219 690.257 596.97 C 690.257 596.71 690.471 596.501 690.725 596.501 C 691 596.501 691.245 596.715 691.245 597.087 C 691.245 597.505 691.02 597.871 690.664 598.121 Z " fill="rgb(0,0,0)"/><path d=" M 677.981 597.398 L 677.981 595.966 C 677.981 595.667 677.823 595.57 677.573 595.57 C 677.344 595.57 677.191 595.696 677.1 595.808 L 677.1 597.398 L 676.315 597.398 L 676.315 594 L 677.1 594 L 677.1 595.237 C 677.248 595.065 677.538 594.877 677.95 594.877 C 678.511 594.877 678.765 595.193 678.765 595.646 L 678.765 597.398 L 677.981 597.398 Z " fill="rgb(0,0,0)"/><path d=" M 680.196 595.508 C 679.855 595.508 679.722 595.712 679.692 595.89 L 680.706 595.89 C 680.685 595.717 680.558 595.508 680.196 595.508 Z  M 678.892 596.165 C 678.892 595.452 679.427 594.876 680.196 594.876 C 680.925 594.876 681.454 595.411 681.454 596.246 L 681.454 596.425 L 679.702 596.425 C 679.758 596.644 679.962 596.827 680.319 596.827 C 680.492 596.827 680.777 596.751 680.92 596.618 L 681.261 597.133 C 681.016 597.352 680.609 597.459 680.232 597.459 C 679.473 597.459 678.892 596.965 678.892 596.165 Z " fill="rgb(0,0,0)"/><path d=" M 681.618 597.657 C 681.674 597.687 681.75 597.703 681.811 597.703 C 681.99 597.703 682.102 597.667 682.148 597.565 L 682.203 597.433 L 681.221 594.937 L 682.046 594.937 L 682.606 596.496 L 683.161 594.937 L 683.992 594.937 L 682.881 597.749 C 682.682 598.268 682.316 598.386 681.842 598.395 C 681.771 598.395 681.587 598.381 681.506 598.355 L 681.618 597.657 Z " fill="rgb(0,0,0)"/><path d=" M 686.63 597.398 L 686.63 595.966 C 686.63 595.667 686.472 595.57 686.222 595.57 C 685.993 595.57 685.84 595.696 685.749 595.808 L 685.749 597.398 L 684.964 597.398 L 684.964 594 L 685.749 594 L 685.749 595.237 C 685.896 595.065 686.187 594.877 686.599 594.877 C 687.159 594.877 687.414 595.193 687.414 595.646 L 687.414 597.398 L 686.63 597.398 Z " fill="rgb(0,0,0)"/><path d=" M 689.416 596.165 C 689.416 595.839 689.222 595.569 688.876 595.569 C 688.54 595.569 688.346 595.839 688.346 596.165 C 688.346 596.496 688.54 596.766 688.876 596.766 C 689.222 596.766 689.416 596.496 689.416 596.165 Z  M 687.541 596.165 C 687.541 595.472 688.041 594.876 688.876 594.876 C 689.722 594.876 690.221 595.472 690.221 596.165 C 690.221 596.857 689.722 597.459 688.876 597.459 C 688.041 597.459 687.541 596.857 687.541 596.165 Z " fill="rgb(0,0,0)"/><path d=" M 676.334 598.52 L 677.755 598.52 L 677.755 604.673 L 676.334 604.673 L 676.334 598.52 Z " fill="rgb(0,0,0)"/><path d=" M 680.402 601.251 C 679.784 601.251 679.544 601.62 679.489 601.942 L 681.325 601.942 C 681.288 601.629 681.057 601.251 680.402 601.251 Z  M 678.041 602.44 C 678.041 601.149 679.009 600.106 680.402 600.106 C 681.721 600.106 682.681 601.075 682.681 602.588 L 682.681 602.911 L 679.507 602.911 C 679.609 603.308 679.978 603.64 680.624 603.64 C 680.937 603.64 681.454 603.502 681.712 603.262 L 682.33 604.193 C 681.887 604.59 681.15 604.784 680.466 604.784 C 679.092 604.784 678.041 603.889 678.041 602.44 Z " fill="rgb(0,0,0)"/><path d=" M 683.216 603.474 L 683.216 601.445 L 682.478 601.445 L 682.478 600.218 L 683.216 600.218 L 683.216 599 L 684.636 599 L 684.636 600.218 L 685.541 600.218 L 685.541 601.445 L 684.636 601.445 L 684.636 603.078 C 684.636 603.336 684.784 603.53 685.024 603.53 C 685.181 603.53 685.338 603.474 685.384 603.419 L 685.661 604.49 C 685.486 604.656 685.135 604.785 684.609 604.785 C 683.705 604.785 683.216 604.332 683.216 603.474 Z " fill="rgb(0,0,0)"/><path d=" M 686.371 601.361 L 685.781 600.89 C 686.076 600.743 686.463 600.346 686.565 600.005 C 686.528 600.023 686.436 600.042 686.353 600.042 C 685.956 600.042 685.633 599.737 685.633 599.276 C 685.633 598.805 686.02 598.427 686.482 598.427 C 686.98 598.427 687.423 598.815 687.423 599.498 C 687.423 600.245 687.017 600.909 686.371 601.361 Z " fill="rgb(0,0,0)"/><path d=" M 687.137 604.092 L 687.728 603.077 C 688.06 603.372 688.77 603.677 689.296 603.677 C 689.72 603.677 689.896 603.557 689.896 603.363 C 689.896 602.81 687.304 603.382 687.304 601.573 C 687.304 600.789 687.986 600.107 689.213 600.107 C 689.97 600.107 690.597 600.347 691.076 600.697 L 690.532 601.703 C 690.264 601.445 689.757 601.214 689.222 601.214 C 688.89 601.214 688.669 601.343 688.669 601.519 C 688.669 602.007 691.252 601.5 691.252 603.326 C 691.252 604.175 690.505 604.784 689.231 604.784 C 688.429 604.784 687.608 604.517 687.137 604.092 Z " fill="rgb(0,0,0)"/><path d=" M 676.339 608.788 C 676.339 606.82 677.857 605.615 679.714 605.615 C 681.176 605.615 682.023 606.425 682.409 607.216 L 680.845 608.016 C 680.671 607.639 680.266 607.253 679.714 607.253 C 678.822 607.253 678.224 607.934 678.224 608.788 C 678.224 609.643 678.822 610.324 679.714 610.324 C 680.064 610.324 680.478 610.195 680.671 610.049 L 680.671 609.828 L 679.53 609.828 L 679.53 608.209 L 682.519 608.209 L 682.519 610.72 C 681.839 611.474 680.919 611.962 679.714 611.962 C 677.857 611.962 676.339 610.747 676.339 608.788 Z " fill="rgb(0,0,0)"/><path d=" M 687.384 608.788 C 687.384 607.934 686.804 607.253 685.912 607.253 C 685.02 607.253 684.441 607.934 684.441 608.788 C 684.441 609.643 685.02 610.324 685.912 610.324 C 686.804 610.324 687.384 609.643 687.384 608.788 Z  M 682.555 608.788 C 682.555 606.903 684.018 605.615 685.912 605.615 C 687.807 605.615 689.269 606.903 689.269 608.788 C 689.269 610.674 687.807 611.962 685.912 611.962 C 684.018 611.962 682.555 610.674 682.555 608.788 Z " fill="rgb(0,0,0)"/><path d=" M 689.297 610.977 C 689.297 610.445 689.738 609.994 690.272 609.994 C 690.805 609.994 691.247 610.445 691.247 610.977 C 691.247 611.502 690.805 611.953 690.272 611.953 C 689.738 611.953 689.297 611.502 689.297 610.977 Z  M 689.527 609.57 L 689.279 605.716 L 691.247 605.716 L 691.017 609.57 L 689.527 609.57 Z " fill="rgb(0,0,0)"/></g></svg>